<?xml version="1.0" encoding="UTF-8" standalone="no"?>
<!DOCTYPE svg PUBLIC "-//W3C//DTD SVG 1.1//EN" "http://www.w3.org/Graphics/SVG/1.1/DTD/svg11.dtd">
<svg width="100%" height="100%" viewBox="0 0 1182 1182" version="1.1" xmlns="http://www.w3.org/2000/svg" xmlns:xlink="http://www.w3.org/1999/xlink" xml:space="preserve" xmlns:serif="http://www.serif.com/" style="fill-rule:evenodd;clip-rule:evenodd;stroke-linejoin:round;stroke-miterlimit:2;">
    <g transform="matrix(1,0,0,1,-1179.487329,-1583.264304)">
        <g transform="matrix(0.885574,0,0,0.885574,-1385.945941,952.5973)">
            <circle cx="3563.774" cy="1379.014" r="666.857" style="fill:rgb(20,33,61);"/>
        </g>
        <g transform="matrix(1,0,0,1,990.232184,2275.791689)">
            <path d="M457.239,-341.708L427.758,-341.707L427.778,-341.823L409.589,-341.823L505.763,-484.792L552.361,-484.794L457.239,-341.708ZM575.867,-484.792L515.58,-484.792L515.581,-484.794L541.096,-484.794L541.095,-484.792L623.835,-484.792L528.733,-341.823L516.972,-341.823L516.952,-341.707L491.437,-341.707L491.457,-341.823L480.765,-341.823L575.867,-484.792ZM647.341,-484.792L592.16,-484.792L592.161,-484.794L605.482,-484.793C608.378,-484.795 685.873,-484.792 695.304,-484.762L600.208,-341.823L581.358,-341.823L581.339,-341.707L568.017,-341.707L568.037,-341.823L552.239,-341.823L647.341,-484.792ZM718.792,-484.65C818.314,-484.032 986.44,-480.8 1056.759,-464.102C1157.908,-440.082 1162.183,-341.835 1137.314,-341.823C1113.899,-341.812 910.581,-341.823 910.581,-341.823C910.581,-341.823 788.575,-147.233 758.369,149.126C751.725,214.32 699.879,280.928 699.879,280.928C699.879,280.928 657.267,212.844 656.458,149.126C652.693,-147.233 754.721,-341.823 754.721,-341.823L623.714,-341.823L718.792,-484.65Z" style="fill:rgb(251,163,17);"/>
        </g>
    </g>
</svg>
