<?xml version="1.0" encoding="UTF-8" standalone="no"?>
<!DOCTYPE svg PUBLIC "-//W3C//DTD SVG 1.1//EN" "http://www.w3.org/Graphics/SVG/1.1/DTD/svg11.dtd">
<svg width="100%" height="100%" viewBox="0 0 2815 1488" version="1.1" xmlns="http://www.w3.org/2000/svg" xmlns:xlink="http://www.w3.org/1999/xlink" xml:space="preserve" xmlns:serif="http://www.serif.com/" style="fill-rule:evenodd;clip-rule:evenodd;stroke-linejoin:round;stroke-miterlimit:2;">
    <g transform="matrix(1,0,0,1,-346.617685,-496.359399)">
        <g transform="matrix(1,0,0,1,72.361065,-1257.577609)">
            <path d="M3088.895,1859.361C3078.662,1859.361 3070.354,1867.669 3070.354,1877.903L3070.354,1909.976L274.257,1909.976L274.257,1870.766C274.257,1806.286 326.606,1753.937 391.085,1753.937L3070.354,1753.937L3070.354,1795.259C3070.354,1805.492 3078.662,1813.801 3088.895,1813.801L3088.895,1859.361Z" style="fill:rgb(55,114,255);"/>
        </g>
        <g transform="matrix(1,0,0,1,72.361065,-1257.577609)">
            <path d="M3088.895,3181.67C3078.662,3181.67 3070.354,3189.978 3070.354,3200.211L3070.354,3241.533L391.085,3241.533C326.606,3241.533 274.257,3189.184 274.257,3124.705L274.257,3085.495L3070.354,3085.495L3070.354,3117.567C3070.354,3127.801 3078.662,3136.109 3088.895,3136.109L3088.895,3181.67Z" style="fill:rgb(55,114,255);"/>
        </g>
        <g transform="matrix(0.985715,0,0,1.332155,-1576.517291,25.677108)">
            <path d="M4806.433,1300.994C4796.052,1300.994 4787.623,1307.231 4787.623,1314.913L4787.623,1352.875L1951.005,1352.875L1951.005,996.558C2014.325,996.558 2065.734,958.519 2065.734,911.666C2065.734,864.812 2014.325,826.773 1951.005,826.773L1951.005,470.456L4787.623,470.456L4787.623,508.418C4787.623,516.1 4796.052,522.337 4806.433,522.337L4806.433,556.538C4796.052,556.538 4787.623,562.775 4787.623,570.457L4787.623,632.495C4787.623,640.176 4796.052,646.413 4806.433,646.413L4806.433,680.614C4796.052,680.614 4787.623,686.851 4787.623,694.533L4787.623,756.571C4787.623,764.253 4796.052,770.49 4806.433,770.49L4806.433,804.69C4796.052,804.69 4787.623,810.927 4787.623,818.609L4787.623,880.647C4787.623,888.329 4796.052,894.565 4806.433,894.565L4806.433,928.766C4796.052,928.766 4787.623,935.003 4787.623,942.685L4787.623,1004.723C4787.623,1012.405 4796.052,1018.641 4806.433,1018.641L4806.433,1052.843C4796.052,1052.843 4787.623,1059.08 4787.623,1066.762L4787.623,1128.8C4787.623,1136.482 4796.052,1142.719 4806.433,1142.719L4806.433,1176.918C4796.052,1176.918 4787.623,1183.154 4787.623,1190.836L4787.623,1252.874C4787.623,1260.556 4796.052,1266.792 4806.433,1266.792L4806.433,1300.994Z" style="fill:rgb(20,33,61);"/>
        </g>
        <g transform="matrix(1.362984,0,0,1.362984,-108.136573,-2506.539334)">
            <text x="1163.513px" y="2952.585px" style="font-family:'ArialMT', 'Arial', sans-serif;font-size:96.171px;fill:white;">Y<tspan x="1218.83px 1272.315px " y="2952.585px 2952.585px ">ou</tspan>r online travel diary</text>
        </g>
        <g transform="matrix(1,0,0,1,212.884553,-1496.795459)">
            <g transform="matrix(433.333333,0,0,433.333333,2822.420412,2857.452614)">
            </g>
            <text x="1216.887px" y="2857.453px" style="font-family:'BerlinSansFBDemi-Bold', 'Berlin Sans FB Demi', sans-serif;font-weight:700;font-size:433.333px;fill:white;">Trainlog</text>
        </g>
        <g transform="matrix(1.18803,0,0,1.18803,-6.537607,1361.256741)">
            <path d="M457.239,-341.708L427.758,-341.707L427.778,-341.823L409.589,-341.823L505.763,-484.792L552.361,-484.794L457.239,-341.708ZM575.867,-484.792L515.58,-484.792L515.581,-484.794L541.096,-484.794L541.095,-484.792L623.835,-484.792L528.733,-341.823L516.972,-341.823L516.952,-341.707L491.437,-341.707L491.457,-341.823L480.765,-341.823L575.867,-484.792ZM647.341,-484.792L592.16,-484.792L592.161,-484.794L605.482,-484.793C608.378,-484.795 685.873,-484.792 695.304,-484.762L600.208,-341.823L581.358,-341.823L581.339,-341.707L568.017,-341.707L568.037,-341.823L552.239,-341.823L647.341,-484.792ZM718.792,-484.65C818.314,-484.032 986.44,-480.8 1056.759,-464.102C1157.908,-440.082 1162.183,-341.835 1137.314,-341.823C1113.899,-341.812 910.581,-341.823 910.581,-341.823C910.581,-341.823 788.575,-147.233 758.369,149.126C751.725,214.32 699.879,280.928 699.879,280.928C699.879,280.928 657.267,212.844 656.458,149.126C652.693,-147.233 754.721,-341.823 754.721,-341.823L623.714,-341.823L718.792,-484.65Z" style="fill:rgb(251,163,17);"/>
        </g>
    </g>
</svg>
