<?xml version="1.0" encoding="UTF-8" standalone="no"?>
<!DOCTYPE svg PUBLIC "-//W3C//DTD SVG 1.1//EN" "http://www.w3.org/Graphics/SVG/1.1/DTD/svg11.dtd">
<svg width="100%" height="100%" viewBox="0 0 450 450" version="1.1" xmlns="http://www.w3.org/2000/svg" xmlns:xlink="http://www.w3.org/1999/xlink" xml:space="preserve" xmlns:serif="http://www.serif.com/" style="fill-rule:evenodd;clip-rule:evenodd;stroke-miterlimit:10;">
    <g id="Page-1" serif:id="Page 1" transform="matrix(4.166667,0,0,4.166667,0,0)">
        <rect x="0" y="0" width="108" height="108" style="fill:none;"/>
        <clipPath id="_clip1">
            <rect x="0" y="0" width="108" height="108"/>
        </clipPath>
        <g clip-path="url(#_clip1)">
            <g id="Background-Layer" serif:id="Background Layer">
                <rect x="0" y="0" width="108" height="108" style="fill:white;"/>
                <g transform="matrix(-1,0,0,1,108,0)">
                    <rect x="0" y="0" width="108" height="108" style="fill:none;stroke:black;stroke-width:0.3px;"/>
                </g>
                <g transform="matrix(0.243901,0,0,0.261956,-1.755408,-2.580147)">
                    <rect x="7.197" y="9.85" width="442.803" height="107.666" style="fill:rgb(55,114,255);"/>
                </g>
                <g transform="matrix(0.243901,0,0,0.261956,-1.755308,77.216122)">
                    <rect x="7.197" y="9.85" width="442.803" height="107.666" style="fill:rgb(55,114,255);"/>
                </g>
                <g transform="matrix(0.243901,0,0,0.479191,-1.755408,23.483919)">
                    <rect x="7.197" y="9.85" width="442.803" height="107.666" style="fill:rgb(20,33,61);"/>
                </g>
            </g>
        </g>
    </g>
</svg>
